<?xml version="1.0" encoding="UTF-8"?>
<!DOCTYPE svg PUBLIC "-//W3C//DTD SVG 1.1//EN" "http://www.w3.org/Graphics/SVG/1.1/DTD/svg11.dtd">
<svg xmlns="http://www.w3.org/2000/svg" version="1.1" width="480px" height="480px" style="shape-rendering:geometricPrecision; text-rendering:geometricPrecision; image-rendering:optimizeQuality; fill-rule:evenodd; clip-rule:evenodd" xmlns:xlink="http://www.w3.org/1999/xlink">
<g><path style="opacity:0.936" fill="#ff7800" d="M 372.5,84.5 C 308.764,83.8316 244.931,83.1649 181,82.5C 180.283,83.0442 179.783,83.7109 179.5,84.5C 170.25,86.5828 164.416,92.2495 162,101.5C 153.977,132.594 145.811,163.594 137.5,194.5C 136.351,194.791 135.684,195.624 135.5,197C 134.841,199.462 134.507,201.962 134.5,204.5C 131.493,216.518 128.493,228.518 125.5,240.5C 123.824,241.183 123.157,242.517 123.5,244.5C 119.122,264.014 114.122,283.347 108.5,302.5C 106.72,303.99 106.054,305.99 106.5,308.5C 105.657,313.538 104.657,318.538 103.5,323.5C 101.744,324.552 101.077,326.219 101.5,328.5C 97.4445,346.832 92.2778,364.832 86,382.5C 81.7508,387.373 76.5842,390.873 70.5,393C 56.5093,395.403 42.5093,397.57 28.5,399.5C 26.1432,399.337 23.8098,399.503 21.5,400C 22.056,400.383 22.3893,400.883 22.5,401.5C 18.0727,402.125 15.0727,400.459 13.5,396.5C 14.3414,394.621 14.6747,392.621 14.5,390.5C 20.4737,366.47 26.6404,342.47 33,318.5C 34.1029,313.628 35.7696,308.962 38,304.5C 52.8333,293 67.6667,281.5 82.5,270C 71.8333,269.667 61.1667,269.333 50.5,269C 47.7303,263.634 48.2303,258.467 52,253.5C 66.5893,242.788 81.0893,231.955 95.5,221C 85.1667,220.667 74.8333,220.333 64.5,220C 62.0904,219.242 61.0904,217.575 61.5,215C 62.0769,209.415 64.7436,205.081 69.5,202C 82.8333,192 96.1667,182 109.5,172C 98.7355,171.954 88.0688,171.287 77.5,170C 75.9546,168.178 75.288,166.011 75.5,163.5C 76.1861,158.093 77.1861,152.759 78.5,147.5C 80.256,146.448 80.9227,144.781 80.5,142.5C 82.8302,133.187 85.1635,123.854 87.5,114.5C 89.977,112.584 90.977,109.917 90.5,106.5C 93.8816,92.5122 97.3816,78.5122 101,64.5C 102.049,61.8133 103.549,59.48 105.5,57.5C 106.906,57.0269 107.573,56.0269 107.5,54.5C 111.371,50.7278 116.038,48.2278 121.5,47C 215.5,46.3333 309.5,46.3333 403.5,47C 408.218,48.4486 409.718,51.6153 408,56.5C 401.54,64.6292 394.706,72.4626 387.5,80C 382.817,82.617 377.817,84.117 372.5,84.5 Z"/></g>
<g><path style="opacity:0.039" fill="#ff4b00" d="M 107.5,54.5 C 107.573,56.0269 106.906,57.0269 105.5,57.5C 105.427,55.9731 106.094,54.9731 107.5,54.5 Z"/></g>
<g><path style="opacity:0.039" fill="#ff6600" d="M 372.5,84.5 C 308.167,84.5 243.833,84.5 179.5,84.5C 179.783,83.7109 180.283,83.0442 181,82.5C 244.931,83.1649 308.764,83.8316 372.5,84.5 Z"/></g>
<g><path style="opacity:0.96" fill="#ff7900" d="M 196.5,343.5 C 192.997,347.031 191.663,351.364 192.5,356.5C 188.19,373.549 183.69,390.549 179,407.5C 175.833,413.333 171.333,417.833 165.5,421C 142.503,425.416 119.503,429.749 96.5,434C 90.4817,435.815 86.815,433.649 85.5,427.5C 88.6721,415.335 92.0055,403.335 95.5,391.5C 96.3636,390.312 97.3636,389.145 98.5,388C 98.7975,385.554 98.7975,383.054 98.5,380.5C 100.634,371.435 102.967,362.435 105.5,353.5C 107.163,351.562 107.829,349.228 107.5,346.5C 119.155,303.21 130.489,259.877 141.5,216.5C 143.048,216.179 143.715,215.179 143.5,213.5C 143.833,210.833 144.167,208.167 144.5,205.5C 145.117,205.611 145.617,205.944 146,206.5C 146.953,203.568 147.453,200.568 147.5,197.5C 154.369,167.802 162.369,138.469 171.5,109.5C 172.906,109.027 173.573,108.027 173.5,106.5C 177.067,101.042 182.067,97.5421 188.5,96C 280.5,95.3333 372.5,95.3333 464.5,96C 469.057,99.3291 469.557,103.162 466,107.5C 449.188,127.613 432.021,147.447 414.5,167C 412.5,168 410.5,169 408.5,170C 356.212,171.316 303.878,171.983 251.5,172C 240.859,176.128 236.692,183.628 239,194.5C 240.319,196.487 242.152,197.654 244.5,198C 306.167,198.333 367.833,198.667 429.5,199C 434.035,200.573 435.535,203.739 434,208.5C 416.875,229.294 399.375,249.794 381.5,270C 376.867,272.742 371.867,274.409 366.5,275C 315.833,275.333 265.167,275.667 214.5,276C 208.423,298.476 202.423,320.976 196.5,343.5 Z"/></g>
<g><path style="opacity:0.047" fill="#ff4b00" d="M 173.5,106.5 C 173.573,108.027 172.906,109.027 171.5,109.5C 171.427,107.973 172.094,106.973 173.5,106.5 Z"/></g>
<g><path style="opacity:0.058" fill="#ff5c00" d="M 90.5,106.5 C 90.977,109.917 89.977,112.584 87.5,114.5C 88.5115,111.748 89.5115,109.081 90.5,106.5 Z"/></g>
<g><path style="opacity:0.027" fill="#ff4300" d="M 80.5,142.5 C 80.9227,144.781 80.256,146.448 78.5,147.5C 79.0241,145.694 79.6908,144.028 80.5,142.5 Z"/></g>
<g><path style="opacity:0.08" fill="#ff5400" d="M 137.5,194.5 C 136.743,197.99 135.743,201.323 134.5,204.5C 134.507,201.962 134.841,199.462 135.5,197C 135.684,195.624 136.351,194.791 137.5,194.5 Z"/></g>
<g><path style="opacity:0.1" fill="#ff5900" d="M 147.5,197.5 C 147.453,200.568 146.953,203.568 146,206.5C 145.617,205.944 145.117,205.611 144.5,205.5C 145.205,202.646 146.205,199.979 147.5,197.5 Z"/></g>
<g><path style="opacity:0.055" fill="#ff4a00" d="M 143.5,213.5 C 143.715,215.179 143.048,216.179 141.5,216.5C 141.932,215.29 142.599,214.29 143.5,213.5 Z"/></g>
<g><path style="opacity:0.051" fill="#ff4b00" d="M 125.5,240.5 C 125.011,241.995 124.345,243.329 123.5,244.5C 123.157,242.517 123.824,241.183 125.5,240.5 Z"/></g>
<g><path style="opacity:0.089" fill="#ff5600" d="M 108.5,302.5 C 108.741,304.898 108.074,306.898 106.5,308.5C 106.054,305.99 106.72,303.99 108.5,302.5 Z"/></g>
<g><path style="opacity:0.031" fill="#ff4800" d="M 103.5,323.5 C 102.976,325.306 102.309,326.972 101.5,328.5C 101.077,326.219 101.744,324.552 103.5,323.5 Z"/></g>
<g><path style="opacity:0.199" fill="#ff6300" d="M 196.5,343.5 C 195.302,347.98 193.969,352.313 192.5,356.5C 191.663,351.364 192.997,347.031 196.5,343.5 Z"/></g>
<g><path style="opacity:0.063" fill="#ff4f00" d="M 107.5,346.5 C 107.829,349.228 107.163,351.562 105.5,353.5C 105.721,350.933 106.388,348.599 107.5,346.5 Z"/></g>
<g><path style="opacity:0.081" fill="#ff6200" d="M 98.5,380.5 C 98.7975,383.054 98.7975,385.554 98.5,388C 97.3636,389.145 96.3636,390.312 95.5,391.5C 96.0552,387.603 97.0552,383.937 98.5,380.5 Z"/></g>
<g><path style="opacity:0.063" fill="#ff5500" d="M 14.5,390.5 C 14.6747,392.621 14.3414,394.621 13.5,396.5C 12.5155,394.402 12.8489,392.402 14.5,390.5 Z"/></g>
<g><path style="opacity:0.103" fill="#ff5a00" d="M 28.5,399.5 C 26.6976,400.458 24.6976,401.125 22.5,401.5C 22.3893,400.883 22.056,400.383 21.5,400C 23.8098,399.503 26.1432,399.337 28.5,399.5 Z"/></g>
</svg>
