<?xml version="1.0" encoding="UTF-8"?>
<!DOCTYPE svg PUBLIC "-//W3C//DTD SVG 1.1//EN" "http://www.w3.org/Graphics/SVG/1.1/DTD/svg11.dtd">
<svg xmlns="http://www.w3.org/2000/svg" version="1.1" width="512px" height="512px" style="shape-rendering:geometricPrecision; text-rendering:geometricPrecision; image-rendering:optimizeQuality; fill-rule:evenodd; clip-rule:evenodd" xmlns:xlink="http://www.w3.org/1999/xlink">
<g><path style="opacity:0.995" fill="#c30092" d="M 232.5,-0.5 C 233.167,-0.5 233.833,-0.5 234.5,-0.5C 260.248,26.7492 286.581,53.5825 313.5,80C 312.207,80.49 310.873,80.6567 309.5,80.5C 305.833,80.5 302.167,80.5 298.5,80.5C 272.473,53.8063 246.14,27.473 219.5,1.5C 224.01,1.11561 228.343,0.44894 232.5,-0.5 Z"/></g>
<g><path style="opacity:0.999" fill="#c10399" d="M 234.5,-0.5 C 240.167,-0.5 245.833,-0.5 251.5,-0.5C 278.132,26.632 304.965,53.632 332,80.5C 332.464,81.0944 332.631,81.7611 332.5,82.5C 324.65,82.2511 316.983,81.5844 309.5,80.5C 310.873,80.6567 312.207,80.49 313.5,80C 286.581,53.5825 260.248,26.7492 234.5,-0.5 Z"/></g>
<g><path style="opacity:0.999" fill="#bf02a0" d="M 251.5,-0.5 C 257.5,-0.5 263.5,-0.5 269.5,-0.5C 297.833,28.1667 326.167,56.8333 354.5,85.5C 347.267,83.8504 339.934,82.8504 332.5,82.5C 332.631,81.7611 332.464,81.0944 332,80.5C 304.965,53.632 278.132,26.632 251.5,-0.5 Z"/></g>
<g><path style="opacity:0.995" fill="#bd02a6" d="M 269.5,-0.5 C 272.5,-0.5 275.5,-0.5 278.5,-0.5C 284.177,0.42725 289.844,1.42725 295.5,2.5C 326.794,35.2997 358.961,67.9663 392,100.5C 392.464,101.094 392.631,101.761 392.5,102.5C 381.091,94.1312 368.425,88.4645 354.5,85.5C 326.167,56.8333 297.833,28.1667 269.5,-0.5 Z"/></g>
<g><path style="opacity:0.997" fill="#c5008c" d="M 219.5,1.5 C 246.14,27.473 272.473,53.8063 298.5,80.5C 293.5,80.5 288.5,80.5 283.5,80.5C 258.868,55.368 234.035,30.368 209,5.5C 208.536,4.90558 208.369,4.23891 208.5,3.5C 212.112,2.57777 215.779,1.9111 219.5,1.5 Z"/></g>
<g><path style="opacity:0.997" fill="#bc00aa" d="M 295.5,2.5 C 302.46,2.9586 309.127,4.29194 315.5,6.5C 378.167,69.8333 441.167,132.833 504.5,195.5C 506.658,202.611 508.325,209.944 509.5,217.5C 476.701,185.201 444.035,152.701 411.5,120C 410.906,119.536 410.239,119.369 409.5,119.5C 404.167,113.5 398.5,107.833 392.5,102.5C 392.631,101.761 392.464,101.094 392,100.5C 358.961,67.9663 326.794,35.2997 295.5,2.5 Z"/></g>
<g><path style="opacity:0.998" fill="#c70086" d="M 208.5,3.5 C 208.369,4.23891 208.536,4.90558 209,5.5C 234.035,30.368 258.868,55.368 283.5,80.5C 279.167,80.5 274.833,80.5 270.5,80.5C 246.117,55.1161 221.117,30.4494 195.5,6.5C 199.575,4.88157 203.908,3.88157 208.5,3.5 Z"/></g>
<g><path style="opacity:0.997" fill="#c9007f" d="M 195.5,6.5 C 221.117,30.4494 246.117,55.1161 270.5,80.5C 266.167,80.5 261.833,80.5 257.5,80.5C 233.833,56.5 210.167,32.5 186.5,8.5C 189.37,7.36639 192.37,6.69973 195.5,6.5 Z"/></g>
<g><path style="opacity:0.997" fill="#cc0079" d="M 186.5,8.5 C 210.167,32.5 233.833,56.5 257.5,80.5C 253.5,80.5 249.5,80.5 245.5,80.5C 222.833,57.5 200.167,34.5 177.5,11.5C 180.254,10.0541 183.254,9.05414 186.5,8.5 Z"/></g>
<g><path style="opacity:0.985" fill="#ba00b0" d="M 315.5,6.5 C 402.308,29.1345 462.474,82.1345 496,165.5C 499.755,175.262 502.589,185.262 504.5,195.5C 441.167,132.833 378.167,69.8333 315.5,6.5 Z"/></g>
<g><path style="opacity:0.996" fill="#ce0073" d="M 177.5,11.5 C 200.167,34.5 222.833,57.5 245.5,80.5C 241.833,80.5 238.167,80.5 234.5,80.5C 212.833,58.1667 190.833,36.1667 168.5,14.5C 171.215,12.9281 174.215,11.9281 177.5,11.5 Z"/></g>
<g><path style="opacity:0.995" fill="#d0006d" d="M 168.5,14.5 C 190.833,36.1667 212.833,58.1667 234.5,80.5C 230.5,80.5 226.5,80.5 222.5,80.5C 201.806,59.1396 180.806,38.1396 159.5,17.5C 162.402,16.2163 165.402,15.2163 168.5,14.5 Z"/></g>
<g><path style="opacity:0.996" fill="#d20067" d="M 159.5,17.5 C 180.806,38.1396 201.806,59.1396 222.5,80.5C 218.5,80.5 214.5,80.5 210.5,80.5C 191.535,61.0347 172.368,41.7014 153,22.5C 152.536,21.9056 152.369,21.2389 152.5,20.5C 154.751,19.3052 157.085,18.3052 159.5,17.5 Z"/></g>
<g><path style="opacity:0.998" fill="#d6005c" d="M 152.5,20.5 C 152.369,21.2389 152.536,21.9056 153,22.5C 172.368,41.7014 191.535,61.0347 210.5,80.5C 204.108,80.2487 197.775,80.582 191.5,81.5C 191.611,80.8826 191.944,80.3826 192.5,80C 175.167,62.6667 157.833,45.3333 140.5,28C 141.252,27.3292 141.586,26.4959 141.5,25.5C 145.048,23.5593 148.714,21.8926 152.5,20.5 Z"/></g>
<g><path style="opacity:0.995" fill="#d80054" d="M 141.5,25.5 C 141.586,26.4959 141.252,27.3292 140.5,28C 157.833,45.3333 175.167,62.6667 192.5,80C 191.944,80.3826 191.611,80.8826 191.5,81.5C 189.167,81.5 186.833,81.5 184.5,81.5C 168.202,64.7014 151.702,48.0348 135,31.5C 134.536,30.9056 134.369,30.2389 134.5,29.5C 136.635,27.9291 138.968,26.5957 141.5,25.5 Z"/></g>
<g><path style="opacity:0.998" fill="#db024e" d="M 134.5,29.5 C 134.369,30.2389 134.536,30.9056 135,31.5C 151.702,48.0348 168.202,64.7014 184.5,81.5C 181.167,81.8333 177.833,82.1667 174.5,82.5C 174.631,81.7611 174.464,81.0944 174,80.5C 158.298,64.9652 142.798,49.2986 127.5,33.5C 129.663,31.9172 131.996,30.5839 134.5,29.5 Z"/></g>
<g><path style="opacity:0.992" fill="#dc0047" d="M 127.5,33.5 C 142.798,49.2986 158.298,64.9652 174,80.5C 174.464,81.0944 174.631,81.7611 174.5,82.5C 171.763,82.4013 169.096,82.7347 166.5,83.5C 152.421,67.9188 137.755,52.7521 122.5,38C 121.906,37.5357 121.239,37.369 120.5,37.5C 122.663,35.9172 124.996,34.5839 127.5,33.5 Z"/></g>
<g><path style="opacity:0.996" fill="#df0141" d="M 120.5,37.5 C 121.239,37.369 121.906,37.5357 122.5,38C 137.755,52.7521 152.421,67.9188 166.5,83.5C 163.031,83.5465 159.698,84.2132 156.5,85.5C 156.631,84.7611 156.464,84.0944 156,83.5C 141.965,69.6319 128.131,55.6319 114.5,41.5C 116.205,39.8079 118.205,38.4746 120.5,37.5 Z"/></g>
<g><path style="opacity:0.994" fill="#e20036" d="M 114.5,41.5 C 128.131,55.6319 141.965,69.6319 156,83.5C 156.464,84.0944 156.631,84.7611 156.5,85.5C 152.397,86.0901 148.397,87.0901 144.5,88.5C 132.422,74.9193 119.756,61.7526 106.5,49C 105.906,48.5357 105.239,48.369 104.5,48.5C 107.446,45.6869 110.779,43.3535 114.5,41.5 Z"/></g>
<g><path style="opacity:0.997" fill="#e6012b" d="M 104.5,48.5 C 105.239,48.369 105.906,48.5357 106.5,49C 119.756,61.7526 132.422,74.9193 144.5,88.5C 141.382,89.5587 138.382,90.8921 135.5,92.5C 123.167,79.1667 110.833,65.8333 98.5,52.5C 100.228,50.7745 102.228,49.4411 104.5,48.5 Z"/></g>
<g><path style="opacity:0.989" fill="#e80123" d="M 98.5,52.5 C 110.833,65.8333 123.167,79.1667 135.5,92.5C 133.02,93.242 130.687,94.242 128.5,95.5C 117.423,82.9196 105.756,70.7529 93.5,59C 92.9056,58.5357 92.2389,58.369 91.5,58.5C 93.8082,56.5293 96.1415,54.5293 98.5,52.5 Z"/></g>
<g><path style="opacity:0.982" fill="#ec0118" d="M 91.5,58.5 C 92.2389,58.369 92.9056,58.5357 93.5,59C 105.756,70.7529 117.423,82.9196 128.5,95.5C 125.19,97.8008 121.857,100.134 118.5,102.5C 107.756,90.253 96.423,78.4197 84.5,67C 83.9056,66.5357 83.2389,66.369 82.5,66.5C 84.8949,63.1385 87.8949,60.4719 91.5,58.5 Z"/></g>
<g><path style="opacity:1" fill="#fefdfd" d="M 210.5,80.5 C 214.5,80.5 218.5,80.5 222.5,80.5C 226.5,80.5 230.5,80.5 234.5,80.5C 238.167,80.5 241.833,80.5 245.5,80.5C 249.5,80.5 253.5,80.5 257.5,80.5C 261.833,80.5 266.167,80.5 270.5,80.5C 274.833,80.5 279.167,80.5 283.5,80.5C 288.5,80.5 293.5,80.5 298.5,80.5C 302.167,80.5 305.833,80.5 309.5,80.5C 316.983,81.5844 324.65,82.2511 332.5,82.5C 339.934,82.8504 347.267,83.8504 354.5,85.5C 368.425,88.4645 381.091,94.1312 392.5,102.5C 398.5,107.833 404.167,113.5 409.5,119.5C 417.375,131.245 423.042,143.911 426.5,157.5C 427.182,164.585 428.182,171.585 429.5,178.5C 429.5,183.5 429.5,188.5 429.5,193.5C 430.014,199.822 430.347,206.155 430.5,212.5C 430.5,217.5 430.5,222.5 430.5,227.5C 430.5,231.833 430.5,236.167 430.5,240.5C 430.5,244.833 430.5,249.167 430.5,253.5C 430.5,257.5 430.5,261.5 430.5,265.5C 430.5,269.167 430.5,272.833 430.5,276.5C 430.5,280.5 430.5,284.5 430.5,288.5C 430.5,292.5 430.5,296.5 430.5,300.5C 429.582,306.775 429.249,313.108 429.5,319.5C 429.24,325.172 428.907,330.839 428.5,336.5C 428.167,339.167 427.833,341.833 427.5,344.5C 426.608,349.516 425.608,354.516 424.5,359.5C 423.434,361.701 422.767,364.035 422.5,366.5C 420.972,369.749 419.639,373.082 418.5,376.5C 416.992,378.181 415.992,380.181 415.5,382.5C 413.179,385.796 410.846,389.129 408.5,392.5C 402.132,399.869 395.132,406.536 387.5,412.5C 381.779,416.027 375.779,419.027 369.5,421.5C 361.653,424.116 353.653,426.116 345.5,427.5C 341.846,427.942 338.179,428.276 334.5,428.5C 328.19,429.19 321.857,429.524 315.5,429.5C 307.178,430.055 298.844,430.388 290.5,430.5C 284.5,430.5 278.5,430.5 272.5,430.5C 269.167,430.5 265.833,430.5 262.5,430.5C 259.167,430.5 255.833,430.5 252.5,430.5C 249.167,430.5 245.833,430.5 242.5,430.5C 238.833,430.5 235.167,430.5 231.5,430.5C 228.167,430.5 224.833,430.5 221.5,430.5C 217.833,430.5 214.167,430.5 210.5,430.5C 206.167,430.5 201.833,430.5 197.5,430.5C 192.195,429.806 186.862,429.472 181.5,429.5C 177.176,429.073 172.842,428.739 168.5,428.5C 162.371,426.805 156.037,425.472 149.5,424.5C 117.73,413.731 96.7303,392.397 86.5,360.5C 85.1298,353.711 83.7965,347.044 82.5,340.5C 82.8168,336.298 82.4834,332.298 81.5,328.5C 81.8222,322.642 81.4889,316.975 80.5,311.5C 80.5,307.833 80.5,304.167 80.5,300.5C 80.5,296.833 80.5,293.167 80.5,289.5C 80.5,286.167 80.5,282.833 80.5,279.5C 80.5,275.833 80.5,272.167 80.5,268.5C 80.5,265.167 80.5,261.833 80.5,258.5C 80.5,255.167 80.5,251.833 80.5,248.5C 80.5,245.167 80.5,241.833 80.5,238.5C 80.5,232.5 80.5,226.5 80.5,220.5C 80.5,215.167 80.5,209.833 80.5,204.5C 80.3921,199.13 80.7255,193.797 81.5,188.5C 81.2213,183.405 81.5546,178.405 82.5,173.5C 82.5219,168.728 83.1885,164.061 84.5,159.5C 85.912,151.845 88.2453,144.512 91.5,137.5C 97.8514,123.801 106.851,112.134 118.5,102.5C 121.857,100.134 125.19,97.8008 128.5,95.5C 130.687,94.242 133.02,93.242 135.5,92.5C 138.382,90.8921 141.382,89.5587 144.5,88.5C 148.397,87.0901 152.397,86.0901 156.5,85.5C 159.698,84.2132 163.031,83.5465 166.5,83.5C 169.096,82.7347 171.763,82.4013 174.5,82.5C 177.833,82.1667 181.167,81.8333 184.5,81.5C 186.833,81.5 189.167,81.5 191.5,81.5C 197.775,80.582 204.108,80.2487 210.5,80.5 Z"/></g>
<g><path style="opacity:0.996" fill="#f41709" d="M 82.5,66.5 C 83.2389,66.369 83.9056,66.5357 84.5,67C 96.423,78.4197 107.756,90.253 118.5,102.5C 106.851,112.134 97.8514,123.801 91.5,137.5C 77.8852,125.553 64.8852,112.886 52.5,99.5C 61.029,87.2976 71.029,76.2976 82.5,66.5 Z"/></g>
<g><path style="opacity:0.995" fill="#f63c0d" d="M 52.5,99.5 C 64.8852,112.886 77.8852,125.553 91.5,137.5C 88.2453,144.512 85.912,151.845 84.5,159.5C 69.5,145.5 54.5,131.5 39.5,117.5C 43.0908,110.918 47.4242,104.918 52.5,99.5 Z"/></g>
<g><path style="opacity:1" fill="#db024c" d="M 186.5,113.5 C 196.319,112.506 206.319,112.173 216.5,112.5C 233.965,130.465 251.632,148.299 269.5,166C 269.272,166.399 268.938,166.565 268.5,166.5C 262.203,165.68 255.869,165.347 249.5,165.5C 232.702,148.201 215.702,131.035 198.5,114C 194.514,113.501 190.514,113.334 186.5,113.5 Z"/></g>
<g><path style="opacity:1" fill="#d70359" d="M 216.5,112.5 C 222.5,112.5 228.5,112.5 234.5,112.5C 254.298,132.799 274.298,152.965 294.5,173C 293.906,173.464 293.239,173.631 292.5,173.5C 284.581,170.524 276.581,168.191 268.5,166.5C 268.938,166.565 269.272,166.399 269.5,166C 251.632,148.299 233.965,130.465 216.5,112.5 Z"/></g>
<g><path style="opacity:1" fill="#d20067" d="M 243.5,112.5 C 247.5,112.5 251.5,112.5 255.5,112.5C 302.833,160.5 350.5,208.167 398.5,255.5C 398.5,259.5 398.5,263.5 398.5,267.5C 346.5,216.167 294.833,164.5 243.5,112.5 Z"/></g>
<g><path style="opacity:1" fill="#d0006d" d="M 255.5,112.5 C 259.5,112.5 263.5,112.5 267.5,112.5C 310.833,156.5 354.5,200.167 398.5,243.5C 398.5,247.5 398.5,251.5 398.5,255.5C 350.5,208.167 302.833,160.5 255.5,112.5 Z"/></g>
<g><path style="opacity:1" fill="#ce0273" d="M 267.5,112.5 C 271.167,112.5 274.833,112.5 278.5,112.5C 294.465,128.965 310.632,145.299 327,161.5C 327.198,163.382 327.698,165.048 328.5,166.5C 330.843,174.843 336.176,180.176 344.5,182.5C 345.952,183.302 347.618,183.802 349.5,184C 365.701,200.368 382.035,216.535 398.5,232.5C 398.5,236.167 398.5,239.833 398.5,243.5C 354.5,200.167 310.833,156.5 267.5,112.5 Z"/></g>
<g><path style="opacity:1" fill="#cc097a" d="M 278.5,112.5 C 282.5,112.5 286.5,112.5 290.5,112.5C 303.131,125.632 315.965,138.632 329,151.5C 329.464,152.094 329.631,152.761 329.5,153.5C 328.627,157.768 328.294,162.102 328.5,166.5C 327.698,165.048 327.198,163.382 327,161.5C 310.632,145.299 294.465,128.965 278.5,112.5 Z"/></g>
<g><path style="opacity:1" fill="#ca0280" d="M 290.5,112.5 C 294.833,112.5 299.167,112.5 303.5,112.5C 314.167,123.5 324.833,134.5 335.5,145.5C 333.084,147.908 331.084,150.574 329.5,153.5C 329.631,152.761 329.464,152.094 329,151.5C 315.965,138.632 303.131,125.632 290.5,112.5 Z"/></g>
<g><path style="opacity:1" fill="#df0240" d="M 172.5,114.5 C 176.97,113.514 181.637,113.181 186.5,113.5C 190.514,113.334 194.514,113.501 198.5,114C 215.702,131.035 232.702,148.201 249.5,165.5C 244.124,166.285 238.791,167.285 233.5,168.5C 216.754,150.252 199.421,132.418 181.5,115C 178.518,114.502 175.518,114.335 172.5,114.5 Z"/></g>
<g><path style="opacity:1" fill="#c70b8c" d="M 303.5,112.5 C 315.017,112.649 326.35,113.316 337.5,114.5C 336.127,114.343 334.793,114.51 333.5,115C 354.333,135.833 375.167,156.667 396,177.5C 396.494,175.866 396.66,174.199 396.5,172.5C 398.227,183.952 398.894,195.619 398.5,207.5C 387.5,196.833 376.5,186.167 365.5,175.5C 373.238,161.495 370.238,150.661 356.5,143C 349.086,140.541 342.086,141.374 335.5,145.5C 324.833,134.5 314.167,123.5 303.5,112.5 Z"/></g>
<g><path style="opacity:1" fill="#e5042e" d="M 172.5,114.5 C 190.132,132.632 207.965,150.632 226,168.5C 226.464,169.094 226.631,169.761 226.5,170.5C 223.378,171.561 220.378,172.895 217.5,174.5C 199.754,155.252 181.42,136.418 162.5,118C 161.207,117.51 159.873,117.343 158.5,117.5C 162.857,115.581 167.523,114.581 172.5,114.5 Z"/></g>
<g><path style="opacity:1" fill="#e30235" d="M 172.5,114.5 C 175.518,114.335 178.518,114.502 181.5,115C 199.421,132.418 216.754,150.252 233.5,168.5C 231.167,169.167 228.833,169.833 226.5,170.5C 226.631,169.761 226.464,169.094 226,168.5C 207.965,150.632 190.132,132.632 172.5,114.5 Z"/></g>
<g><path style="opacity:1" fill="#c30694" d="M 337.5,114.5 C 372.38,118.38 392.046,137.713 396.5,172.5C 396.66,174.199 396.494,175.866 396,177.5C 375.167,156.667 354.333,135.833 333.5,115C 334.793,114.51 336.127,114.343 337.5,114.5 Z"/></g>
<g><path style="opacity:1" fill="#ea021f" d="M 158.5,117.5 C 159.873,117.343 161.207,117.51 162.5,118C 181.42,136.418 199.754,155.252 217.5,174.5C 213.255,176.096 209.255,178.096 205.5,180.5C 186.449,160.449 166.783,141.115 146.5,122.5C 149.983,119.763 153.983,118.097 158.5,117.5 Z"/></g>
<g><path style="opacity:0.995" fill="#bd02a5" d="M 409.5,119.5 C 410.239,119.369 410.906,119.536 411.5,120C 444.035,152.701 476.701,185.201 509.5,217.5C 509.741,222.694 510.407,227.694 511.5,232.5C 511.5,235.5 511.5,238.5 511.5,241.5C 483.167,213.5 454.833,185.5 426.5,157.5C 423.042,143.911 417.375,131.245 409.5,119.5 Z"/></g>
<g><path style="opacity:0.993" fill="#f74c0e" d="M 39.5,117.5 C 54.5,131.5 69.5,145.5 84.5,159.5C 83.1885,164.061 82.5219,168.728 82.5,173.5C 66.1667,157.833 50.1667,141.833 34.5,125.5C 35.6803,122.46 37.347,119.794 39.5,117.5 Z"/></g>
<g><path style="opacity:1" fill="#ee0212" d="M 146.5,122.5 C 166.783,141.115 186.449,160.449 205.5,180.5C 202.81,183.185 199.81,185.518 196.5,187.5C 177.167,167.5 157.5,147.833 137.5,128.5C 139.951,125.723 142.951,123.723 146.5,122.5 Z"/></g>
<g><path style="opacity:0.995" fill="#f85810" d="M 34.5,125.5 C 50.1667,141.833 66.1667,157.833 82.5,173.5C 81.5546,178.405 81.2213,183.405 81.5,188.5C 64.027,170.469 46.3604,152.802 28.5,135.5C 30.5146,132.131 32.5146,128.798 34.5,125.5 Z"/></g>
<g><path style="opacity:1" fill="#f31008" d="M 137.5,128.5 C 157.5,147.833 177.167,167.5 196.5,187.5C 189.004,194.318 182.671,201.984 177.5,210.5C 158.167,191.5 138.833,172.5 119.5,153.5C 122.458,142.89 128.458,134.557 137.5,128.5 Z"/></g>
<g><path style="opacity:0.997" fill="#f86412" d="M 28.5,135.5 C 46.3604,152.802 64.027,170.469 81.5,188.5C 80.7255,193.797 80.3921,199.13 80.5,204.5C 61.7014,186.202 43.0347,167.702 24.5,149C 23.9056,148.536 23.2389,148.369 22.5,148.5C 24.2288,144.042 26.2288,139.709 28.5,135.5 Z"/></g>
<g><path style="opacity:1" fill="#fefdfe" d="M 365.5,175.5 C 363.092,177.916 360.426,179.916 357.5,181.5C 353.232,182.373 348.898,182.706 344.5,182.5C 336.176,180.176 330.843,174.843 328.5,166.5C 328.294,162.102 328.627,157.768 329.5,153.5C 331.084,150.574 333.084,147.908 335.5,145.5C 342.086,141.374 349.086,140.541 356.5,143C 370.238,150.661 373.238,161.495 365.5,175.5 Z"/></g>
<g><path style="opacity:0.996" fill="#f97113" d="M 22.5,148.5 C 23.2389,148.369 23.9056,148.536 24.5,149C 43.0347,167.702 61.7014,186.202 80.5,204.5C 80.5,209.833 80.5,215.167 80.5,220.5C 59.5,200.167 38.8333,179.5 18.5,158.5C 19.3143,154.884 20.6477,151.551 22.5,148.5 Z"/></g>
<g><path style="opacity:0.999" fill="#bf01a0" d="M 426.5,157.5 C 454.833,185.5 483.167,213.5 511.5,241.5C 511.5,247.5 511.5,253.5 511.5,259.5C 484.167,232.5 456.833,205.5 429.5,178.5C 428.182,171.585 427.182,164.585 426.5,157.5 Z"/></g>
<g><path style="opacity:1" fill="#f5270b" d="M 119.5,153.5 C 138.833,172.5 158.167,191.5 177.5,210.5C 176.071,213.696 174.405,216.696 172.5,219.5C 153.115,201.116 134.449,182.116 116.5,162.5C 116.528,159.084 117.528,156.084 119.5,153.5 Z"/></g>
<g><path style="opacity:0.997" fill="#f97d15" d="M 18.5,158.5 C 38.8333,179.5 59.5,200.167 80.5,220.5C 80.5,226.5 80.5,232.5 80.5,238.5C 57.8333,216.5 35.5,194.167 13.5,171.5C 14.3697,166.777 16.0363,162.444 18.5,158.5 Z"/></g>
<g><path style="opacity:1" fill="#fffdfd" d="M 249.5,165.5 C 255.869,165.347 262.203,165.68 268.5,166.5C 276.581,168.191 284.581,170.524 292.5,173.5C 312.525,183.525 327.525,198.525 337.5,218.5C 338.992,222.987 340.658,227.32 342.5,231.5C 342.547,234.969 343.213,238.302 344.5,241.5C 344.5,249.5 344.5,257.5 344.5,265.5C 344.5,266.833 344.5,268.167 344.5,269.5C 343.469,271.961 342.802,274.627 342.5,277.5C 341.681,279.772 341.015,282.106 340.5,284.5C 339.169,287.829 337.836,291.162 336.5,294.5C 334.234,298.034 332.234,301.7 330.5,305.5C 327.815,308.19 325.482,311.19 323.5,314.5C 316.682,321.996 309.016,328.329 300.5,333.5C 296.313,335.76 291.979,337.76 287.5,339.5C 281.21,341.323 274.877,342.989 268.5,344.5C 263.848,344.998 259.181,345.331 254.5,345.5C 249.482,345.387 244.482,345.053 239.5,344.5C 229.9,342.187 220.566,338.853 211.5,334.5C 197.5,325.167 185.833,313.5 176.5,299.5C 172.343,290.025 169.009,280.358 166.5,270.5C 166.331,265.819 165.998,261.152 165.5,256.5C 165.353,251.786 165.686,247.119 166.5,242.5C 167.381,238.546 168.048,234.546 168.5,230.5C 170.208,227.05 171.541,223.383 172.5,219.5C 174.405,216.696 176.071,213.696 177.5,210.5C 182.671,201.984 189.004,194.318 196.5,187.5C 199.81,185.518 202.81,183.185 205.5,180.5C 209.255,178.096 213.255,176.096 217.5,174.5C 220.378,172.895 223.378,171.561 226.5,170.5C 228.833,169.833 231.167,169.167 233.5,168.5C 238.791,167.285 244.124,166.285 249.5,165.5 Z"/></g>
<g><path style="opacity:1" fill="#f6340d" d="M 116.5,162.5 C 134.449,182.116 153.115,201.116 172.5,219.5C 171.541,223.383 170.208,227.05 168.5,230.5C 150.535,213.035 132.701,195.368 115,177.5C 114.506,175.866 114.34,174.199 114.5,172.5C 114.322,168.878 114.989,165.544 116.5,162.5 Z"/></g>
<g><path style="opacity:0.995" fill="#fa8616" d="M 13.5,171.5 C 35.5,194.167 57.8333,216.5 80.5,238.5C 80.5,241.833 80.5,245.167 80.5,248.5C 56.8063,225.473 33.473,202.14 10.5,178.5C 11.3228,176.013 12.3228,173.679 13.5,171.5 Z"/></g>
<g><path style="opacity:1" fill="#ca0280" d="M 365.5,175.5 C 376.5,186.167 387.5,196.833 398.5,207.5C 398.5,211.833 398.5,216.167 398.5,220.5C 385.368,207.869 372.368,195.035 359.5,182C 358.906,181.536 358.239,181.369 357.5,181.5C 360.426,179.916 363.092,177.916 365.5,175.5 Z"/></g>
<g><path style="opacity:0.997" fill="#fa8c17" d="M 10.5,178.5 C 33.473,202.14 56.8063,225.473 80.5,248.5C 80.5,251.833 80.5,255.167 80.5,258.5C 56.868,235.368 33.368,212.035 10,188.5C 9.50999,187.207 9.34332,185.873 9.5,184.5C 9.51715,182.435 9.85048,180.435 10.5,178.5 Z"/></g>
<g><path style="opacity:0.998" fill="#c10099" d="M 429.5,178.5 C 456.833,205.5 484.167,232.5 511.5,259.5C 511.5,265.167 511.5,270.833 511.5,276.5C 484.251,250.752 457.418,224.419 431,197.5C 430.79,195.942 430.29,194.609 429.5,193.5C 429.5,188.5 429.5,183.5 429.5,178.5 Z"/></g>
<g><path style="opacity:1" fill="#cc087a" d="M 357.5,181.5 C 358.239,181.369 358.906,181.536 359.5,182C 372.368,195.035 385.368,207.869 398.5,220.5C 398.5,224.5 398.5,228.5 398.5,232.5C 382.035,216.535 365.701,200.368 349.5,184C 347.618,183.802 345.952,183.302 344.5,182.5C 348.898,182.706 353.232,182.373 357.5,181.5 Z"/></g>
<g><path style="opacity:1" fill="#f7400e" d="M 114.5,172.5 C 114.34,174.199 114.506,175.866 115,177.5C 132.701,195.368 150.535,213.035 168.5,230.5C 168.048,234.546 167.381,238.546 166.5,242.5C 148.833,225.167 131.167,207.833 113.5,190.5C 113.5,188.167 113.5,185.833 113.5,183.5C 113.185,179.629 113.518,175.962 114.5,172.5 Z"/></g>
<g><path style="opacity:0.996" fill="#fb9218" d="M 9.5,184.5 C 9.34332,185.873 9.50999,187.207 10,188.5C 33.368,212.035 56.868,235.368 80.5,258.5C 80.5,261.833 80.5,265.167 80.5,268.5C 55.8333,244.167 31.1667,219.833 6.5,195.5C 6.74241,191.521 7.74241,187.854 9.5,184.5 Z"/></g>
<g><path style="opacity:0.998" fill="#fb9818" d="M 6.5,195.5 C 31.1667,219.833 55.8333,244.167 80.5,268.5C 80.5,272.167 80.5,275.833 80.5,279.5C 55.1667,254.5 29.8333,229.5 4.5,204.5C 4.42032,201.219 5.08699,198.219 6.5,195.5 Z"/></g>
<g><path style="opacity:1" fill="#f74c0e" d="M 113.5,190.5 C 131.167,207.833 148.833,225.167 166.5,242.5C 165.686,247.119 165.353,251.786 165.5,256.5C 148.201,239.702 131.035,222.702 114,205.5C 113.501,200.511 113.334,195.511 113.5,190.5 Z"/></g>
<g><path style="opacity:1" fill="#e5032d" d="M 255.5,197.5 C 274.5,217.167 293.833,236.5 313.5,255.5C 313.562,260.076 312.895,264.409 311.5,268.5C 289.753,245.251 267.42,222.418 244.5,200C 243.207,199.51 241.873,199.343 240.5,199.5C 245.217,197.762 250.217,197.096 255.5,197.5 Z"/></g>
<g><path style="opacity:1" fill="#e30034" d="M 255.5,197.5 C 258.881,197.46 262.214,197.793 265.5,198.5C 281.917,214.914 297.917,231.581 313.5,248.5C 313.5,250.833 313.5,253.167 313.5,255.5C 293.833,236.5 274.5,217.167 255.5,197.5 Z"/></g>
<g><path style="opacity:1" fill="#d50761" d="M 234.5,112.5 C 237.5,112.5 240.5,112.5 243.5,112.5C 294.833,164.5 346.5,216.167 398.5,267.5C 398.5,270.5 398.5,273.5 398.5,276.5C 378.201,256.702 358.035,236.702 338,216.5C 337.536,217.094 337.369,217.761 337.5,218.5C 327.525,198.525 312.525,183.525 292.5,173.5C 293.239,173.631 293.906,173.464 294.5,173C 274.298,152.965 254.298,132.799 234.5,112.5 Z"/></g>
<g><path style="opacity:0.996" fill="#c30192" d="M 429.5,193.5 C 430.29,194.609 430.79,195.942 431,197.5C 457.418,224.419 484.251,250.752 511.5,276.5C 511.5,277.167 511.5,277.833 511.5,278.5C 510.622,282.336 509.956,286.336 509.5,290.5C 483.167,264.5 456.833,238.5 430.5,212.5C 430.347,206.155 430.014,199.822 429.5,193.5 Z"/></g>
<g><path style="opacity:1" fill="#e10f40" d="M 265.5,198.5 C 292.68,204.348 308.68,221.015 313.5,248.5C 297.917,231.581 281.917,214.914 265.5,198.5 Z"/></g>
<g><path style="opacity:1" fill="#e80123" d="M 240.5,199.5 C 241.873,199.343 243.207,199.51 244.5,200C 267.42,222.418 289.753,245.251 311.5,268.5C 311.59,271.152 310.924,273.485 309.5,275.5C 285.117,250.116 260.117,225.449 234.5,201.5C 236.214,200.262 238.214,199.595 240.5,199.5 Z"/></g>
<g><path style="opacity:1" fill="#eb001c" d="M 234.5,201.5 C 260.117,225.449 285.117,250.116 309.5,275.5C 309.293,278.241 308.293,280.574 306.5,282.5C 281.752,256.251 256.419,230.418 230.5,205C 229.906,204.536 229.239,204.369 228.5,204.5C 230.181,202.992 232.181,201.992 234.5,201.5 Z"/></g>
<g><path style="opacity:0.997" fill="#fb9f19" d="M 4.5,204.5 C 29.8333,229.5 55.1667,254.5 80.5,279.5C 80.5,282.833 80.5,286.167 80.5,289.5C 54.1396,263.806 28.1396,237.806 2.5,211.5C 2.92668,208.99 3.59334,206.657 4.5,204.5 Z"/></g>
<g><path style="opacity:1" fill="#ee0112" d="M 228.5,204.5 C 229.239,204.369 229.906,204.536 230.5,205C 256.419,230.418 281.752,256.251 306.5,282.5C 305.277,286.049 303.277,289.049 300.5,291.5C 273.833,264.167 246.833,237.167 219.5,210.5C 221.951,207.723 224.951,205.723 228.5,204.5 Z"/></g>
<g><path style="opacity:0.995" fill="#fca51a" d="M 2.5,211.5 C 28.1396,237.806 54.1396,263.806 80.5,289.5C 80.5,293.167 80.5,296.833 80.5,300.5C 54.1667,274.5 27.8333,248.5 1.5,222.5C 1.55241,218.802 1.88575,215.135 2.5,211.5 Z"/></g>
<g><path style="opacity:1" fill="#f85a13" d="M 113.5,183.5 C 113.5,185.833 113.5,188.167 113.5,190.5C 113.334,195.511 113.501,200.511 114,205.5C 131.035,222.702 148.201,239.702 165.5,256.5C 165.998,261.152 166.331,265.819 166.5,270.5C 166.649,271.552 166.483,272.552 166,273.5C 148.583,255.249 130.75,237.583 112.5,220.5C 112.171,207.989 112.505,195.655 113.5,183.5 Z"/></g>
<g><path style="opacity:0.996" fill="#c5008c" d="M 430.5,212.5 C 456.833,238.5 483.167,264.5 509.5,290.5C 509.26,294.606 508.593,298.606 507.5,302.5C 506.761,302.631 506.094,302.464 505.5,302C 480.632,276.965 455.632,252.132 430.5,227.5C 430.5,222.5 430.5,217.5 430.5,212.5 Z"/></g>
<g><path style="opacity:1" fill="#d7025b" d="M 398.5,276.5 C 398.5,279.5 398.5,282.5 398.5,285.5C 379.868,267.368 361.368,249.035 343,230.5C 342.601,230.728 342.435,231.062 342.5,231.5C 340.658,227.32 338.992,222.987 337.5,218.5C 337.369,217.761 337.536,217.094 338,216.5C 358.035,236.702 378.201,256.702 398.5,276.5 Z"/></g>
<g><path style="opacity:0.997" fill="#fcab1b" d="M 1.5,222.5 C 27.8333,248.5 54.1667,274.5 80.5,300.5C 80.5,304.167 80.5,307.833 80.5,311.5C 80.631,312.239 80.4643,312.906 80,313.5C 52.9143,286.916 26.4143,259.916 0.5,232.5C 0.187225,228.958 0.520558,225.625 1.5,222.5 Z"/></g>
<g><path style="opacity:1" fill="#f31208" d="M 219.5,210.5 C 246.833,237.167 273.833,264.167 300.5,291.5C 294.443,300.542 286.11,306.542 275.5,309.5C 250.833,284.5 226.167,259.5 201.5,234.5C 204.902,224.447 210.902,216.447 219.5,210.5 Z"/></g>
<g><path style="opacity:1" fill="#f86513" d="M 112.5,220.5 C 130.75,237.583 148.583,255.249 166,273.5C 166.483,272.552 166.649,271.552 166.5,270.5C 169.009,280.358 172.343,290.025 176.5,299.5C 176.565,299.938 176.399,300.272 176,300.5C 154.965,279.298 133.799,258.298 112.5,237.5C 112.5,231.833 112.5,226.167 112.5,220.5 Z"/></g>
<g><path style="opacity:1" fill="#d90254" d="M 398.5,285.5 C 398.5,288.5 398.5,291.5 398.5,294.5C 380.5,276.833 362.5,259.167 344.5,241.5C 343.213,238.302 342.547,234.969 342.5,231.5C 342.435,231.062 342.601,230.728 343,230.5C 361.368,249.035 379.868,267.368 398.5,285.5 Z"/></g>
<g><path style="opacity:0.995" fill="#fdb21c" d="M -0.5,232.5 C -0.166667,232.5 0.166667,232.5 0.5,232.5C 26.4143,259.916 52.9143,286.916 80,313.5C 80.4643,312.906 80.631,312.239 80.5,311.5C 81.4889,316.975 81.8222,322.642 81.5,328.5C 81.5654,328.938 81.3988,329.272 81,329.5C 53.9653,302.298 26.7987,275.298 -0.5,248.5C -0.5,243.167 -0.5,237.833 -0.5,232.5 Z"/></g>
<g><path style="opacity:0.998" fill="#c70086" d="M 430.5,227.5 C 455.632,252.132 480.632,276.965 505.5,302C 506.094,302.464 506.761,302.631 507.5,302.5C 507.089,306.221 506.422,309.888 505.5,313.5C 504.761,313.631 504.094,313.464 503.5,313C 479.299,288.632 454.965,264.465 430.5,240.5C 430.5,236.167 430.5,231.833 430.5,227.5 Z"/></g>
<g><path style="opacity:1" fill="#f5290b" d="M 201.5,234.5 C 226.167,259.5 250.833,284.5 275.5,309.5C 270.173,311.784 264.507,313.118 258.5,313.5C 238.5,292.833 218.167,272.5 197.5,252.5C 197.283,246.047 198.616,240.047 201.5,234.5 Z"/></g>
<g><path style="opacity:0.994" fill="#ca007f" d="M 430.5,240.5 C 454.965,264.465 479.299,288.632 503.5,313C 504.094,313.464 504.761,313.631 505.5,313.5C 504.652,317.227 503.652,320.893 502.5,324.5C 478.5,300.833 454.5,277.167 430.5,253.5C 430.5,249.167 430.5,244.833 430.5,240.5 Z"/></g>
<g><path style="opacity:1" fill="#f97114" d="M 112.5,237.5 C 133.799,258.298 154.965,279.298 176,300.5C 176.399,300.272 176.565,299.938 176.5,299.5C 185.833,313.5 197.5,325.167 211.5,334.5C 211.062,334.435 210.728,334.601 210.5,335C 231.702,356.035 252.702,377.201 273.5,398.5C 268.167,398.5 262.833,398.5 257.5,398.5C 209.5,349.833 161.167,301.5 112.5,253.5C 112.5,248.167 112.5,242.833 112.5,237.5 Z"/></g>
<g><path style="opacity:1" fill="#dc1852" d="M 344.5,241.5 C 362.5,259.167 380.5,276.833 398.5,294.5C 398.828,305.346 398.494,316.013 397.5,326.5C 397.5,324.833 397.5,323.167 397.5,321.5C 397.666,315.491 397.499,309.491 397,303.5C 380,286.5 363,269.5 346,252.5C 345.825,257.019 345.325,261.353 344.5,265.5C 344.5,257.5 344.5,249.5 344.5,241.5 Z"/></g>
<g><path style="opacity:1" fill="#fdb81d" d="M -0.5,248.5 C 26.7987,275.298 53.9653,302.298 81,329.5C 81.3988,329.272 81.5654,328.938 81.5,328.5C 82.4834,332.298 82.8168,336.298 82.5,340.5C 82.6567,341.873 82.49,343.207 82,344.5C 54.632,316.965 27.132,289.632 -0.5,262.5C -0.5,257.833 -0.5,253.167 -0.5,248.5 Z"/></g>
<g><path style="opacity:1" fill="#f6370c" d="M 197.5,252.5 C 218.167,272.5 238.5,292.833 258.5,313.5C 252.612,314.012 246.945,313.345 241.5,311.5C 227.833,297.167 213.833,283.167 199.5,269.5C 197.98,263.977 197.314,258.31 197.5,252.5 Z"/></g>
<g><path style="opacity:0.995" fill="#cc0079" d="M 430.5,253.5 C 454.5,277.167 478.5,300.833 502.5,324.5C 501.946,327.746 500.946,330.746 499.5,333.5C 476.5,310.833 453.5,288.167 430.5,265.5C 430.5,261.5 430.5,257.5 430.5,253.5 Z"/></g>
<g><path style="opacity:1" fill="#f97914" d="M 112.5,253.5 C 161.167,301.5 209.5,349.833 257.5,398.5C 254.833,398.5 252.167,398.5 249.5,398.5C 204.167,352.5 158.5,306.833 112.5,261.5C 112.5,258.833 112.5,256.167 112.5,253.5 Z"/></g>
<g><path style="opacity:1" fill="#fa7f15" d="M 112.5,261.5 C 158.5,306.833 204.167,352.5 249.5,398.5C 246.167,398.5 242.833,398.5 239.5,398.5C 197.5,355.833 155.167,313.5 112.5,271.5C 112.5,268.167 112.5,264.833 112.5,261.5 Z"/></g>
<g><path style="opacity:1" fill="#de0043" d="M 397.5,321.5 C 379.833,304.167 362.167,286.833 344.5,269.5C 344.5,268.167 344.5,266.833 344.5,265.5C 345.325,261.353 345.825,257.019 346,252.5C 363,269.5 380,286.5 397,303.5C 397.499,309.491 397.666,315.491 397.5,321.5 Z"/></g>
<g><path style="opacity:0.996" fill="#febe1f" d="M -0.5,262.5 C 27.132,289.632 54.632,316.965 82,344.5C 82.49,343.207 82.6567,341.873 82.5,340.5C 83.7965,347.044 85.1298,353.711 86.5,360.5C 86.631,361.239 86.4643,361.906 86,362.5C 57.6331,333.627 29.1331,305.627 0.5,278.5C 0.166667,278.5 -0.166667,278.5 -0.5,278.5C -0.5,273.167 -0.5,267.833 -0.5,262.5 Z"/></g>
<g><path style="opacity:0.999" fill="#ce0073" d="M 430.5,265.5 C 453.5,288.167 476.5,310.833 499.5,333.5C 499.072,336.785 498.072,339.785 496.5,342.5C 474.833,320.167 452.833,298.167 430.5,276.5C 430.5,272.833 430.5,269.167 430.5,265.5 Z"/></g>
<g><path style="opacity:1" fill="#f74613" d="M 199.5,269.5 C 213.833,283.167 227.833,297.167 241.5,311.5C 219.18,305.847 205.18,291.847 199.5,269.5 Z"/></g>
<g><path style="opacity:1" fill="#fa8616" d="M 112.5,271.5 C 155.167,313.5 197.5,355.833 239.5,398.5C 236.167,398.5 232.833,398.5 229.5,398.5C 190.833,359.167 151.833,320.167 112.5,281.5C 112.5,278.167 112.5,274.833 112.5,271.5 Z"/></g>
<g><path style="opacity:1" fill="#e1063c" d="M 344.5,269.5 C 362.167,286.833 379.833,304.167 397.5,321.5C 397.5,323.167 397.5,324.833 397.5,326.5C 397.813,330.042 397.479,333.375 396.5,336.5C 396.663,334.143 396.497,331.81 396,329.5C 378.582,311.579 360.748,294.246 342.5,277.5C 342.802,274.627 343.469,271.961 344.5,269.5 Z"/></g>
<g><path style="opacity:0.995" fill="#d0006d" d="M 430.5,276.5 C 452.833,298.167 474.833,320.167 496.5,342.5C 496.02,345.443 495.02,348.11 493.5,350.5C 472.5,329.833 451.5,309.167 430.5,288.5C 430.5,284.5 430.5,280.5 430.5,276.5 Z"/></g>
<g><path style="opacity:0.997" fill="#fec420" d="M 86.5,360.5 C 96.7303,392.397 117.73,413.731 149.5,424.5C 176.46,452.966 204.293,481.3 233,509.5C 233.464,510.094 233.631,510.761 233.5,511.5C 233.167,511.5 232.833,511.5 232.5,511.5C 225.112,510.493 217.779,509.16 210.5,507.5C 142.168,437.5 72.8349,367.833 2.5,298.5C 1.34077,291.891 0.674103,285.224 0.5,278.5C 29.1331,305.627 57.6331,333.627 86,362.5C 86.4643,361.906 86.631,361.239 86.5,360.5 Z"/></g>
<g><path style="opacity:1" fill="#e30235" d="M 342.5,277.5 C 360.748,294.246 378.582,311.579 396,329.5C 396.497,331.81 396.663,334.143 396.5,336.5C 396.5,337.167 396.5,337.833 396.5,338.5C 378.368,320.868 360.368,303.035 342.5,285C 341.906,284.536 341.239,284.369 340.5,284.5C 341.015,282.106 341.681,279.772 342.5,277.5 Z"/></g>
<g><path style="opacity:1" fill="#fa8c17" d="M 112.5,281.5 C 151.833,320.167 190.833,359.167 229.5,398.5C 226.167,398.5 222.833,398.5 219.5,398.5C 184.167,362.5 148.5,326.833 112.5,291.5C 112.5,288.167 112.5,284.833 112.5,281.5 Z"/></g>
<g><path style="opacity:1" fill="#e5032d" d="M 340.5,284.5 C 341.239,284.369 341.906,284.536 342.5,285C 360.368,303.035 378.368,320.868 396.5,338.5C 396.237,343.124 395.237,347.458 393.5,351.5C 393.649,350.448 393.483,349.448 393,348.5C 374.667,330.167 356.333,311.833 338,293.5C 337.617,294.056 337.117,294.389 336.5,294.5C 337.836,291.162 339.169,287.829 340.5,284.5 Z"/></g>
<g><path style="opacity:0.996" fill="#d20067" d="M 430.5,288.5 C 451.5,309.167 472.5,329.833 493.5,350.5C 493.065,353.157 492.065,355.491 490.5,357.5C 489.883,357.611 489.383,357.944 489,358.5C 469.632,338.965 450.132,319.632 430.5,300.5C 430.5,296.5 430.5,292.5 430.5,288.5 Z"/></g>
<g><path style="opacity:1" fill="#fb9218" d="M 112.5,291.5 C 148.5,326.833 184.167,362.5 219.5,398.5C 216.167,398.5 212.833,398.5 209.5,398.5C 177.5,365.833 145.167,333.5 112.5,301.5C 112.5,298.167 112.5,294.833 112.5,291.5 Z"/></g>
<g><path style="opacity:0.996" fill="#feca1f" d="M 2.5,298.5 C 72.8349,367.833 142.168,437.5 210.5,507.5C 200.96,506.448 191.627,504.448 182.5,501.5C 125.549,442.882 67.8825,384.882 9.5,327.5C 6.38693,318.047 4.0536,308.38 2.5,298.5 Z"/></g>
<g><path style="opacity:1" fill="#ea021f" d="M 393.5,351.5 C 392.796,356.29 391.129,360.623 388.5,364.5C 369.885,344.217 350.551,324.551 330.5,305.5C 332.234,301.7 334.234,298.034 336.5,294.5C 337.117,294.389 337.617,294.056 338,293.5C 356.333,311.833 374.667,330.167 393,348.5C 393.483,349.448 393.649,350.448 393.5,351.5 Z"/></g>
<g><path style="opacity:1" fill="#fb9919" d="M 112.5,301.5 C 145.167,333.5 177.5,365.833 209.5,398.5C 205.5,398.5 201.5,398.5 197.5,398.5C 197.5,398.167 197.5,397.833 197.5,397.5C 169.833,369.167 141.833,341.167 113.5,313.5C 112.64,309.566 112.307,305.566 112.5,301.5 Z"/></g>
<g><path style="opacity:0.998" fill="#d6015c" d="M 430.5,300.5 C 450.132,319.632 469.632,338.965 489,358.5C 489.383,357.944 489.883,357.611 490.5,357.5C 488.95,362.93 486.616,367.93 483.5,372.5C 466.587,354.085 449.087,336.085 431,318.5C 430.617,319.056 430.117,319.389 429.5,319.5C 429.249,313.108 429.582,306.775 430.5,300.5 Z"/></g>
<g><path style="opacity:1" fill="#ee0212" d="M 330.5,305.5 C 350.551,324.551 369.885,344.217 388.5,364.5C 387.277,368.049 385.277,371.049 382.5,373.5C 363.167,353.5 343.5,333.833 323.5,314.5C 325.482,311.19 327.815,308.19 330.5,305.5 Z"/></g>
<g><path style="opacity:1" fill="#fb9f1a" d="M 113.5,313.5 C 141.833,341.167 169.833,369.167 197.5,397.5C 194.15,397.665 190.817,397.498 187.5,397C 162.965,372.298 138.299,347.798 113.5,323.5C 113.5,320.167 113.5,316.833 113.5,313.5 Z"/></g>
<g><path style="opacity:0.995" fill="#d90254" d="M 483.5,372.5 C 482.921,375.331 481.588,377.664 479.5,379.5C 463.202,362.701 446.702,346.035 430,329.5C 429.814,332.036 429.314,334.369 428.5,336.5C 428.907,330.839 429.24,325.172 429.5,319.5C 430.117,319.389 430.617,319.056 431,318.5C 449.087,336.085 466.587,354.085 483.5,372.5 Z"/></g>
<g><path style="opacity:1" fill="#fca61d" d="M 113.5,323.5 C 138.299,347.798 162.965,372.298 187.5,397C 190.817,397.498 194.15,397.665 197.5,397.5C 197.5,397.833 197.5,398.167 197.5,398.5C 191.811,398.468 186.145,398.134 180.5,397.5C 179.048,396.698 177.382,396.198 175.5,396C 154.216,375.218 133.549,354.052 113.5,332.5C 113.5,329.5 113.5,326.5 113.5,323.5 Z"/></g>
<g><path style="opacity:1" fill="#f31008" d="M 323.5,314.5 C 343.5,333.833 363.167,353.5 382.5,373.5C 376.443,382.542 368.11,388.542 357.5,391.5C 338.5,372.167 319.5,352.833 300.5,333.5C 309.016,328.329 316.682,321.996 323.5,314.5 Z"/></g>
<g><path style="opacity:0.99" fill="#ffd120" d="M 9.5,327.5 C 67.8825,384.882 125.549,442.882 182.5,501.5C 106.176,477.346 51.6757,428.679 19,355.5C 15.1306,346.392 11.964,337.058 9.5,327.5 Z"/></g>
<g><path style="opacity:1" fill="#fcae21" d="M 113.5,332.5 C 133.549,354.052 154.216,375.218 175.5,396C 177.382,396.198 179.048,396.698 180.5,397.5C 139.46,395.127 117.127,373.46 113.5,332.5 Z"/></g>
<g><path style="opacity:1" fill="#f5290a" d="M 300.5,333.5 C 319.5,352.833 338.5,372.167 357.5,391.5C 352.809,393.591 347.809,394.924 342.5,395.5C 323.418,377.92 304.752,359.754 286.5,341C 287.056,340.617 287.389,340.117 287.5,339.5C 291.979,337.76 296.313,335.76 300.5,333.5 Z"/></g>
<g><path style="opacity:0.995" fill="#dc0149" d="M 479.5,379.5 C 478.59,382.992 476.924,385.992 474.5,388.5C 459.086,374.588 444.086,360.088 429.5,345C 428.906,344.536 428.239,344.369 427.5,344.5C 427.833,341.833 428.167,339.167 428.5,336.5C 429.314,334.369 429.814,332.036 430,329.5C 446.702,346.035 463.202,362.701 479.5,379.5 Z"/></g>
<g><path style="opacity:1" fill="#f86212" d="M 211.5,334.5 C 220.566,338.853 229.9,342.187 239.5,344.5C 238.475,344.897 238.308,345.563 239,346.5C 256.63,363.726 274.13,381.059 291.5,398.5C 285.5,398.5 279.5,398.5 273.5,398.5C 252.702,377.201 231.702,356.035 210.5,335C 210.728,334.601 211.062,334.435 211.5,334.5 Z"/></g>
<g><path style="opacity:1" fill="#f63d0f" d="M 287.5,339.5 C 287.389,340.117 287.056,340.617 286.5,341C 304.752,359.754 323.418,377.92 342.5,395.5C 335.412,397.239 328.079,397.906 320.5,397.5C 303.167,379.833 285.833,362.167 268.5,344.5C 274.877,342.989 281.21,341.323 287.5,339.5 Z"/></g>
<g><path style="opacity:1" fill="#f85711" d="M 239.5,344.5 C 244.482,345.053 249.482,345.387 254.5,345.5C 271.298,362.799 288.298,379.965 305.5,397C 309.152,397.499 312.818,397.665 316.5,397.5C 308.35,398.493 300.017,398.826 291.5,398.5C 274.13,381.059 256.63,363.726 239,346.5C 238.308,345.563 238.475,344.897 239.5,344.5 Z"/></g>
<g><path style="opacity:1" fill="#f74c0f" d="M 268.5,344.5 C 285.833,362.167 303.167,379.833 320.5,397.5C 319.167,397.5 317.833,397.5 316.5,397.5C 312.818,397.665 309.152,397.499 305.5,397C 288.298,379.965 271.298,362.799 254.5,345.5C 259.181,345.331 263.848,344.998 268.5,344.5 Z"/></g>
<g><path style="opacity:0.993" fill="#e0033e" d="M 427.5,344.5 C 428.239,344.369 428.906,344.536 429.5,345C 444.086,360.088 459.086,374.588 474.5,388.5C 472.327,392.852 469.66,396.852 466.5,400.5C 453.115,386.114 439.115,372.447 424.5,359.5C 425.608,354.516 426.608,349.516 427.5,344.5 Z"/></g>
<g><path style="opacity:0.994" fill="#e30335" d="M 424.5,359.5 C 439.115,372.447 453.115,386.114 466.5,400.5C 465.66,402.853 464.326,404.853 462.5,406.5C 450.422,392.919 437.756,379.753 424.5,367C 423.906,366.536 423.239,366.369 422.5,366.5C 422.767,364.035 423.434,361.701 424.5,359.5 Z"/></g>
<g><path style="opacity:0.993" fill="#e6012b" d="M 422.5,366.5 C 423.239,366.369 423.906,366.536 424.5,367C 437.756,379.753 450.422,392.919 462.5,406.5C 461.559,408.772 460.226,410.772 458.5,412.5C 445.253,400.756 432.419,388.422 420,375.5C 419.617,376.056 419.117,376.389 418.5,376.5C 419.639,373.082 420.972,369.749 422.5,366.5 Z"/></g>
<g><path style="opacity:0.989" fill="#e90224" d="M 458.5,412.5 C 456.471,414.858 454.471,417.192 452.5,419.5C 441.423,406.92 429.756,394.753 417.5,383C 416.906,382.536 416.239,382.369 415.5,382.5C 415.992,380.181 416.992,378.181 418.5,376.5C 419.117,376.389 419.617,376.056 420,375.5C 432.419,388.422 445.253,400.756 458.5,412.5 Z"/></g>
<g><path style="opacity:0.998" fill="#ec0218" d="M 415.5,382.5 C 416.239,382.369 416.906,382.536 417.5,383C 429.756,394.753 441.423,406.92 452.5,419.5C 450.157,422.207 447.823,424.874 445.5,427.5C 433.702,416.202 422.035,404.702 410.5,393C 409.906,392.536 409.239,392.369 408.5,392.5C 410.846,389.129 413.179,385.796 415.5,382.5 Z"/></g>
<g><path style="opacity:0.995" fill="#f20908" d="M 408.5,392.5 C 409.239,392.369 409.906,392.536 410.5,393C 422.035,404.702 433.702,416.202 445.5,427.5C 438.778,435.224 431.445,442.224 423.5,448.5C 411.167,436.833 399.167,424.833 387.5,412.5C 395.132,406.536 402.132,399.869 408.5,392.5 Z"/></g>
<g><path style="opacity:0.995" fill="#f5290a" d="M 387.5,412.5 C 399.167,424.833 411.167,436.833 423.5,448.5C 418.44,453.892 412.774,458.559 406.5,462.5C 394.422,448.919 381.756,435.753 368.5,423C 369.056,422.617 369.389,422.117 369.5,421.5C 375.779,419.027 381.779,416.027 387.5,412.5 Z"/></g>
<g><path style="opacity:0.996" fill="#febe1e" d="M 149.5,424.5 C 156.037,425.472 162.371,426.805 168.5,428.5C 167.761,428.369 167.094,428.536 166.5,429C 194.035,456.368 221.368,483.868 248.5,511.5C 243.5,511.5 238.5,511.5 233.5,511.5C 233.631,510.761 233.464,510.094 233,509.5C 204.293,481.3 176.46,452.966 149.5,424.5 Z"/></g>
<g><path style="opacity:0.992" fill="#f6420e" d="M 369.5,421.5 C 369.389,422.117 369.056,422.617 368.5,423C 381.756,435.753 394.422,448.919 406.5,462.5C 401.552,466.648 396.218,470.314 390.5,473.5C 374.781,458.782 359.781,443.449 345.5,427.5C 353.653,426.116 361.653,424.116 369.5,421.5 Z"/></g>
<g><path style="opacity:1" fill="#fdb81d" d="M 168.5,428.5 C 172.842,428.739 177.176,429.073 181.5,429.5C 208.5,456.833 235.5,484.167 262.5,511.5C 257.833,511.5 253.167,511.5 248.5,511.5C 221.368,483.868 194.035,456.368 166.5,429C 167.094,428.536 167.761,428.369 168.5,428.5 Z"/></g>
<g><path style="opacity:0.992" fill="#f85010" d="M 345.5,427.5 C 359.781,443.449 374.781,458.782 390.5,473.5C 387.76,475.56 384.76,477.226 381.5,478.5C 364.419,462.921 347.752,446.754 331.5,430C 332.737,429.768 333.737,429.268 334.5,428.5C 338.179,428.276 341.846,427.942 345.5,427.5 Z"/></g>
<g><path style="opacity:0.995" fill="#fdb11c" d="M 181.5,429.5 C 186.862,429.472 192.195,429.806 197.5,430.5C 224.167,457.5 250.833,484.5 277.5,511.5C 272.5,511.5 267.5,511.5 262.5,511.5C 235.5,484.167 208.5,456.833 181.5,429.5 Z"/></g>
<g><path style="opacity:0.992" fill="#f85d12" d="M 334.5,428.5 C 333.737,429.268 332.737,429.768 331.5,430C 347.752,446.754 364.419,462.921 381.5,478.5C 377.864,481.323 373.864,483.656 369.5,485.5C 351.5,467.167 333.5,448.833 315.5,430.5C 315.5,430.167 315.5,429.833 315.5,429.5C 321.857,429.524 328.19,429.19 334.5,428.5 Z"/></g>
<g><path style="opacity:0.997" fill="#fcab1b" d="M 197.5,430.5 C 201.833,430.5 206.167,430.5 210.5,430.5C 236.5,456.833 262.5,483.167 288.5,509.5C 285.059,510.097 281.725,510.763 278.5,511.5C 278.167,511.5 277.833,511.5 277.5,511.5C 250.833,484.5 224.167,457.5 197.5,430.5 Z"/></g>
<g><path style="opacity:0.995" fill="#fca51a" d="M 210.5,430.5 C 214.167,430.5 217.833,430.5 221.5,430.5C 247.167,456.5 272.833,482.5 298.5,508.5C 295.214,509.207 291.881,509.54 288.5,509.5C 262.5,483.167 236.5,456.833 210.5,430.5 Z"/></g>
<g><path style="opacity:0.997" fill="#fb9f19" d="M 221.5,430.5 C 224.833,430.5 228.167,430.5 231.5,430.5C 256.5,455.833 281.5,481.167 306.5,506.5C 304.039,507.531 301.373,508.198 298.5,508.5C 272.833,482.5 247.167,456.5 221.5,430.5 Z"/></g>
<g><path style="opacity:0.997" fill="#fb9918" d="M 231.5,430.5 C 235.167,430.5 238.833,430.5 242.5,430.5C 266.833,455.167 291.167,479.833 315.5,504.5C 312.781,505.913 309.781,506.58 306.5,506.5C 281.5,481.167 256.5,455.833 231.5,430.5 Z"/></g>
<g><path style="opacity:0.998" fill="#fb9218" d="M 242.5,430.5 C 245.833,430.5 249.167,430.5 252.5,430.5C 276.167,454.5 299.833,478.5 323.5,502.5C 321.095,503.768 318.428,504.435 315.5,504.5C 291.167,479.833 266.833,455.167 242.5,430.5 Z"/></g>
<g><path style="opacity:0.998" fill="#fa8c17" d="M 252.5,430.5 C 255.833,430.5 259.167,430.5 262.5,430.5C 284.798,453.299 307.298,475.965 330,498.5C 330.464,499.094 330.631,499.761 330.5,500.5C 328.401,501.612 326.067,502.279 323.5,502.5C 299.833,478.5 276.167,454.5 252.5,430.5 Z"/></g>
<g><path style="opacity:0.998" fill="#fa8616" d="M 262.5,430.5 C 265.833,430.5 269.167,430.5 272.5,430.5C 294.5,453.167 316.833,475.5 339.5,497.5C 336.785,499.072 333.785,500.072 330.5,500.5C 330.631,499.761 330.464,499.094 330,498.5C 307.298,475.965 284.798,453.299 262.5,430.5 Z"/></g>
<g><path style="opacity:0.998" fill="#f97b15" d="M 272.5,430.5 C 278.5,430.5 284.5,430.5 290.5,430.5C 310.833,451.5 331.5,472.167 352.5,492.5C 348.556,494.964 344.223,496.63 339.5,497.5C 316.833,475.5 294.5,453.167 272.5,430.5 Z"/></g>
<g><path style="opacity:0.997" fill="#f96f15" d="M 315.5,429.5 C 315.5,429.833 315.5,430.167 315.5,430.5C 312.482,430.335 309.482,430.502 306.5,431C 325.754,449.752 344.42,468.918 362.5,488.5C 359.449,490.352 356.116,491.686 352.5,492.5C 331.5,472.167 310.833,451.5 290.5,430.5C 298.844,430.388 307.178,430.055 315.5,429.5 Z"/></g>
<g><path style="opacity:0.996" fill="#f96612" d="M 315.5,430.5 C 333.5,448.833 351.5,467.167 369.5,485.5C 367.287,486.773 364.954,487.773 362.5,488.5C 344.42,468.918 325.754,449.752 306.5,431C 309.482,430.502 312.482,430.335 315.5,430.5 Z"/></g>
</svg>
